<?xml version="1.0" encoding="utf-8"?>
<!-- Generator: Adobe Illustrator 22.1.0, SVG Export Plug-In . SVG Version: 6.00 Build 0)  -->
<svg version="1.1" id="Шар_1" xmlns="http://www.w3.org/2000/svg" xmlns:xlink="http://www.w3.org/1999/xlink" x="0px" y="0px"
	 viewBox="0 0 174.6 283.9" style="enable-background:new 0 0 174.6 283.9;" xml:space="preserve">
<style type="text/css">
	.st0{clip-path:url(#SVGID_2_);fill:#FFFFFF;}
	.st1{clip-path:url(#SVGID_4_);fill:#FFFFFF;}
</style>
<g>
	<g>
		<defs>
			<rect id="SVGID_1_" y="0" width="174.6" height="283.9"/>
		</defs>
		<clipPath id="SVGID_2_">
			<use xlink:href="#SVGID_1_"  style="overflow:visible;"/>
		</clipPath>
		<path class="st0" d="M174.6,210.1L174.6,210.1V73.8c0-10.3-2.5-20.2-7-29.1c-6.8-13.3-17.9-24.5-31.8-32.4
			C121.8,4.5,105.2,0,87.3,0C63.5,0,41.8,8,25.9,21.3C18,27.9,11.5,35.8,7,44.7S0,63.4,0,73.8v136.3c0,10.3,2.5,20.2,7,29.1
			c6.8,13.3,17.9,24.5,31.8,32.4c13.9,7.8,30.6,12.4,48.4,12.4c23.8,0,45.5-8.1,61.4-21.3c7.9-6.6,14.4-14.6,18.9-23.4
			C172.1,230.3,174.6,220.4,174.6,210.1 M130.3,261.8c-12.2,6.9-27,10.9-43,10.9c-21.3,0-40.5-7.2-54.2-18.7
			c-6.9-5.7-12.4-12.5-16.1-19.9c-3.8-7.4-5.8-15.5-5.8-24V73.8c0-8.5,2.1-16.6,5.8-24C22.6,38.6,32.2,29,44.3,22.1
			c12.2-6.9,27-10.9,43-10.9c21.3,0,40.5,7.2,54.2,18.7c6.9,5.7,12.4,12.5,16.1,19.9c3.8,7.4,5.8,15.5,5.8,24v136.3l0,0
			c0,8.5-2.1,16.6-5.8,24C152,245.3,142.5,255,130.3,261.8"/>
	</g>
	<g>
		<defs>
			<rect id="SVGID_3_" y="0" width="174.6" height="283.9"/>
		</defs>
		<clipPath id="SVGID_4_">
			<use xlink:href="#SVGID_3_"  style="overflow:visible;"/>
		</clipPath>
		<path class="st1" d="M87.3,43.5c-7.7,0-14.8,3.1-19.8,8.2c-5.1,5.1-8.2,12.1-8.2,19.8c0,15.5,12.5,28,28,28s28-12.5,28-28
			C115.3,56.1,102.8,43.5,87.3,43.5 M87.3,88.4c-4.7,0-8.9-1.9-11.9-4.9c-3.1-3.1-4.9-7.3-4.9-11.9c0-4.7,1.9-8.9,4.9-11.9
			c3.1-3.1,7.3-4.9,11.9-4.9c4.7,0,8.9,1.9,11.9,4.9c3.1,3.1,4.9,7.3,4.9,11.9c0,4.7-1.9,8.9-4.9,11.9C96.2,86.5,92,88.4,87.3,88.4"
			/>
	</g>
</g>
</svg>
